<?xml version="1.0" standalone="no"?>
<!DOCTYPE svg PUBLIC "-//W3C//DTD SVG 20010904//EN"
 "http://www.w3.org/TR/2001/REC-SVG-20010904/DTD/svg10.dtd">
<svg version="1.0" xmlns="http://www.w3.org/2000/svg"
 width="952.000000pt" height="952.000000pt" viewBox="0 0 952.000000 952.000000"
 preserveAspectRatio="xMidYMid meet">
<metadata>
Created by potrace 1.14, written by Peter Selinger 2001-2017
</metadata>
<g transform="translate(0.000000,952.000000) scale(0.100000,-0.100000)"
fill="#000000" stroke="none">
<path d="M6563 9478 c-9 -10 -22 -18 -30 -18 -7 0 -22 -9 -34 -21 -19 -19 -22
-19 -38 -5 -25 22 -36 20 -70 -13 -32 -32 -46 -69 -38 -101 3 -11 1 -18 -4
-15 -4 3 -15 -8 -24 -26 -19 -36 -19 -37 -44 -149 -11 -47 -20 -85 -21 -85 -1
0 -3 -7 -5 -16 -8 -43 -39 -137 -53 -164 -9 -16 -15 -33 -14 -36 0 -4 -22 -15
-51 -25 -44 -16 -55 -26 -74 -64 -12 -25 -22 -55 -22 -67 -1 -12 -5 -24 -9
-27 -5 -3 -7 -18 -5 -33 3 -19 -7 -46 -31 -87 -20 -32 -36 -61 -36 -63 0 -3
-9 -18 -21 -34 -11 -16 -22 -38 -24 -50 -3 -12 -15 -43 -28 -68 -37 -70 -69
-168 -71 -218 -1 -11 -4 -19 -8 -17 -3 2 -9 -9 -13 -26 -4 -16 -11 -32 -16
-35 -5 -4 -9 -23 -9 -43 0 -34 -1 -35 -14 -17 -7 11 -14 24 -14 28 -2 15 -47
48 -91 67 -27 12 -52 41 -45 52 3 4 -9 14 -26 23 -24 13 -35 14 -46 5 -10 -9
-26 -9 -65 0 -28 7 -67 14 -87 16 -47 4 -140 -24 -169 -51 -25 -22 -75 -130
-66 -139 4 -3 2 -6 -4 -6 -6 0 -13 -15 -17 -32 -10 -53 -101 -216 -137 -248
-3 -3 -12 -15 -21 -28 -14 -21 -14 -27 -2 -50 8 -15 14 -33 14 -40 0 -23 81
-92 109 -92 15 0 32 -5 39 -12 9 -9 17 -6 35 14 13 14 40 33 60 43 21 9 37 21
37 26 0 5 5 9 10 9 23 0 143 138 171 197 16 34 41 70 54 80 33 24 75 142 70
195 l-4 38 32 -16 c18 -9 48 -32 67 -50 19 -19 38 -34 42 -34 18 0 41 -70 40
-125 0 -47 -31 -225 -43 -246 -9 -18 -11 -18 -34 -3 -17 11 -48 16 -108 16
-70 -1 -95 -5 -146 -28 -41 -19 -61 -33 -61 -45 0 -10 -8 -24 -19 -31 -34 -24
-82 -107 -100 -175 -21 -78 -57 -161 -95 -216 -14 -21 -26 -45 -26 -54 0 -21
33 -73 62 -98 13 -12 33 -34 45 -50 19 -27 27 -30 75 -29 37 0 69 9 108 28 48
25 106 62 120 76 3 3 17 13 33 23 26 17 27 17 27 -3 0 -24 -55 -186 -73 -214
-8 -12 -21 -41 -31 -66 -38 -99 -39 -100 -73 -100 -35 0 -116 -34 -146 -62
-11 -9 -39 -27 -63 -40 -47 -25 -56 -44 -25 -56 19 -7 19 -8 0 -47 -11 -22
-29 -67 -40 -100 -11 -33 -24 -69 -29 -80 -5 -11 -18 -51 -30 -89 -11 -37 -32
-90 -46 -117 -14 -26 -23 -53 -19 -59 9 -14 80 -50 100 -50 8 0 15 -4 15 -10
0 -5 6 -10 14 -10 8 0 24 -8 36 -18 21 -17 21 -18 5 -65 -26 -78 -93 -435 -99
-532 -8 -118 -16 -197 -21 -205 -2 -3 -7 -47 -11 -96 -3 -49 -8 -90 -9 -92 -1
-1 -13 26 -26 60 -21 56 -24 79 -24 209 0 94 -4 151 -11 160 -7 8 -15 34 -19
59 -8 50 -25 115 -54 205 -11 33 -29 94 -40 135 -12 41 -49 156 -82 255 -33
99 -61 190 -60 202 0 13 -9 49 -21 80 -12 32 -22 60 -23 63 0 3 -3 10 -6 15
-5 9 -18 55 -20 70 0 2 -5 19 -10 37 -9 28 -35 133 -54 216 -3 14 -10 20 -17
16 -7 -4 -8 -3 -4 4 4 6 -2 28 -12 49 -11 21 -22 55 -26 77 -8 41 -36 106 -46
106 -4 0 -19 33 -35 73 -15 39 -54 137 -86 217 -33 80 -59 148 -59 153 0 4
-22 52 -50 106 -27 54 -50 104 -50 109 0 6 -6 17 -14 25 -8 7 -24 36 -36 63
-12 27 -36 78 -52 114 -17 36 -39 85 -51 110 -11 25 -32 61 -46 80 -51 69 -91
130 -91 138 0 5 -9 20 -19 34 -11 13 -30 44 -43 69 -44 81 -98 164 -131 199
-13 14 -36 49 -52 78 -35 65 -53 81 -66 61 -5 -8 -7 -22 -5 -31 4 -16 -1 -17
-36 -11 -23 3 -49 14 -60 25 -29 29 -135 18 -163 -18 -22 -27 -93 -54 -162
-60 -43 -4 -74 -12 -77 -19 -2 -7 0 -30 5 -51 4 -22 9 -58 9 -81 0 -23 5 -45
12 -49 6 -4 67 -7 134 -6 120 2 188 16 224 46 8 7 28 12 45 11 22 -1 38 8 68
38 36 36 40 39 49 22 6 -10 26 -35 44 -55 l34 -38 -84 5 c-65 5 -91 2 -116
-11 -18 -9 -40 -16 -49 -16 -21 0 -79 -36 -103 -63 -18 -20 -57 -97 -89 -174
-8 -18 -17 -33 -21 -33 -5 0 -8 -6 -8 -13 0 -8 -13 -34 -30 -58 -35 -52 -37
-70 -9 -89 12 -8 39 -33 60 -55 l38 -39 53 11 c29 6 62 15 72 19 16 6 18 4 11
-12 -4 -10 -11 -44 -15 -74 -14 -107 -56 -220 -118 -320 -29 -46 -28 -50 8
-50 17 0 46 -6 65 -14 37 -16 50 -16 82 2 26 14 53 15 73 2 13 -8 10 -15 -18
-41 -18 -17 -44 -48 -58 -70 -27 -43 -57 -146 -48 -161 4 -6 19 -7 35 -4 24 4
29 2 29 -13 0 -10 7 -24 15 -31 8 -7 15 -18 15 -26 0 -26 40 -37 112 -29 l69
6 -5 -44 c-5 -42 -59 -210 -86 -268 -10 -22 -8 -30 12 -62 13 -20 28 -34 35
-32 15 5 79 -28 115 -61 l30 -26 66 69 c37 37 96 93 131 123 122 105 182 190
185 265 1 22 9 54 19 72 21 39 22 77 2 133 -18 52 -19 60 -1 60 7 0 26 10 41
21 22 18 29 19 35 8 5 -7 6 -17 4 -21 -3 -4 -1 -8 4 -8 6 0 13 -11 16 -25 3
-13 11 -37 18 -52 12 -31 15 -39 22 -70 2 -12 9 -31 15 -42 17 -30 14 -36 -29
-60 -68 -38 -157 -128 -186 -187 -25 -52 -28 -80 -13 -144 3 -11 -5 -15 -31
-16 -18 -1 -36 -6 -38 -12 -2 -7 -10 -12 -17 -12 -27 0 -85 -103 -141 -249
-32 -84 -65 -137 -123 -199 -40 -43 -45 -62 -15 -62 21 0 86 -69 109 -115 25
-50 35 -58 55 -40 22 20 64 35 137 51 11 2 49 20 83 39 34 19 64 35 67 35 12
0 46 48 73 103 18 35 24 57 17 57 -8 0 -7 4 3 9 8 6 26 7 41 4 16 -3 41 2 60
11 18 9 40 16 50 16 11 0 20 11 24 31 4 17 13 42 21 57 8 15 14 34 14 42 0 8
6 32 14 54 l13 38 17 -23 c9 -13 16 -31 16 -40 0 -9 9 -36 19 -60 21 -47 23
-43 -46 -97 -23 -18 -52 -51 -65 -73 -16 -29 -28 -39 -47 -39 -31 0 -111 -38
-118 -56 -3 -8 -10 -14 -15 -14 -15 0 -45 -39 -75 -95 -24 -44 -27 -65 -32
-181 -4 -76 -11 -137 -18 -145 -6 -8 -12 -17 -12 -22 0 -4 -8 -21 -16 -38 -17
-32 -8 -59 20 -59 8 0 16 -13 20 -29 5 -22 17 -35 53 -52 26 -13 54 -22 62
-20 23 3 78 30 85 41 3 5 21 17 40 25 34 17 92 68 132 117 52 63 133 266 133
331 0 10 5 15 10 12 32 -20 125 -269 106 -284 -6 -5 -37 -12 -69 -16 -44 -5
-68 -15 -103 -41 -25 -19 -58 -37 -74 -40 -40 -8 -165 -132 -180 -179 -10 -29
-10 -62 -2 -144 12 -113 12 -231 1 -231 -4 0 -5 -9 -2 -19 7 -29 53 -67 105
-90 47 -20 58 -17 69 15 2 6 36 35 74 65 39 29 72 55 75 59 3 3 19 16 35 29
17 12 46 38 66 56 20 19 39 32 41 30 2 -2 4 4 5 13 1 9 9 37 18 62 17 47 16
72 -13 165 -5 17 -6 39 -2 50 4 11 5 26 3 33 -3 6 -1 12 5 12 13 0 36 -66 27
-80 -3 -5 -2 -10 3 -10 5 0 17 -36 26 -80 17 -77 17 -136 0 -215 -7 -33 -42
-77 -55 -69 -5 3 -6 -2 -3 -10 3 -9 2 -16 -4 -16 -5 0 -28 -17 -50 -37 -30
-29 -48 -59 -71 -123 -18 -47 -34 -101 -36 -120 -8 -72 20 -206 64 -305 26
-59 32 -88 22 -122 -13 -45 -1 -58 41 -44 24 8 43 8 61 2 14 -5 28 -7 32 -3
15 14 -7 -60 -30 -101 -13 -23 -39 -96 -60 -162 -20 -66 -51 -167 -69 -225
-19 -58 -37 -121 -41 -140 -14 -71 -58 -179 -146 -356 -49 -100 -89 -186 -89
-193 0 -6 -5 -11 -12 -11 -6 0 -9 -2 -6 -6 11 -10 -108 -294 -123 -294 -5 0
-9 -6 -9 -14 0 -7 -21 -55 -46 -107 -100 -205 -113 -235 -119 -269 -3 -19 -7
-42 -9 -50 -1 -8 -6 -34 -11 -57 -4 -24 -10 -41 -14 -39 -3 2 -7 -17 -8 -42
-1 -26 -7 -60 -14 -77 -11 -27 -14 -5 -25 185 -7 118 -19 316 -26 440 -7 124
-12 290 -10 370 3 156 -11 270 -34 270 -8 0 -15 18 -19 48 -3 26 -13 91 -21
144 -8 54 -12 102 -9 108 3 5 2 10 -3 10 -6 0 -15 14 -21 30 -5 17 -8 30 -5
30 3 0 -4 13 -15 29 -12 16 -21 35 -21 43 -1 17 -24 48 -38 48 -5 0 -13 6 -16
13 -3 6 -15 26 -26 42 -20 31 -70 132 -74 150 -4 22 -31 63 -76 115 -26 30
-62 80 -80 110 -35 59 -58 89 -121 158 -21 24 -39 47 -39 52 0 4 -23 24 -50
44 -30 22 -48 41 -44 48 4 6 3 8 -3 5 -6 -4 -21 7 -34 24 -13 16 -34 42 -46
56 -33 40 -65 139 -64 199 0 30 -4 54 -9 54 -6 0 -10 -6 -11 -12 -2 -63 -12
-149 -20 -174 -17 -54 -78 -160 -117 -203 -56 -61 -59 -66 -67 -90 -4 -13 -22
-40 -41 -61 -35 -39 -92 -162 -99 -215 -2 -16 -8 -50 -14 -75 -5 -25 -11 -67
-12 -95 -3 -53 -16 -105 -28 -105 -26 0 -58 -113 -68 -240 -4 -53 -12 -84 -27
-105 -17 -25 -21 -44 -21 -125 0 -149 15 -326 36 -429 19 -89 19 -95 2 -113
-15 -17 -16 -26 -5 -88 10 -59 63 -232 95 -310 16 -40 19 -52 18 -99 0 -28 7
-55 20 -72 10 -15 19 -31 19 -36 0 -4 15 -31 33 -58 19 -28 48 -76 65 -108 17
-31 52 -88 77 -127 25 -38 45 -71 45 -74 0 -8 40 -56 81 -97 42 -41 89 -65
219 -109 169 -57 292 -125 381 -210 43 -42 79 -82 79 -88 0 -7 4 -12 8 -12 5
0 19 -22 32 -50 20 -42 22 -59 17 -122 -6 -81 -51 -226 -93 -303 -15 -27 -41
-77 -57 -110 -17 -33 -35 -63 -40 -66 -4 -3 -9 -12 -11 -20 -3 -19 -36 -89
-56 -119 -17 -24 -51 -84 -93 -162 -12 -21 -24 -38 -29 -38 -4 0 -8 -4 -8 -10
0 -11 -58 -108 -128 -215 -49 -75 -67 -96 -74 -90 -2 2 -4 -5 -4 -15 0 -17 7
-20 51 -20 28 0 57 6 64 12 11 10 13 10 7 1 -5 -9 2 -13 26 -13 30 0 37 6 83
80 101 162 225 335 237 332 7 -2 10 0 5 4 -6 7 5 30 37 73 6 8 54 58 106 111
87 87 107 102 205 150 l110 54 185 7 c176 7 259 17 414 53 75 18 136 43 136
57 0 5 7 9 15 9 8 0 15 4 15 9 0 15 200 98 200 83 0 -4 4 -2 8 4 4 6 32 25 62
42 30 17 69 44 86 59 39 35 70 58 112 83 18 11 32 28 32 39 0 17 33 49 114
111 11 8 63 57 115 109 53 51 119 108 147 126 59 38 89 75 132 160 17 33 51
81 77 105 25 25 56 61 68 80 12 19 41 61 64 94 24 32 43 64 43 72 0 8 5 14 12
14 6 0 9 3 5 6 -3 4 0 22 8 41 8 20 15 44 15 54 0 18 67 152 99 199 21 30 57
121 53 134 -2 5 4 30 12 55 36 115 56 188 56 206 0 20 6 34 52 117 15 25 24
49 21 52 -3 3 -1 12 5 19 7 8 10 16 7 19 -3 3 3 34 14 69 30 102 46 208 34
220 -8 8 -6 30 7 78 10 36 20 88 24 115 7 57 50 150 85 185 30 31 11 41 -25
14 -77 -54 -254 -150 -289 -156 -5 -1 -14 -6 -20 -10 -107 -80 -339 -208 -382
-211 -13 0 -23 -4 -23 -8 0 -4 -46 -21 -102 -39 -106 -32 -178 -72 -238 -132
-19 -19 -71 -52 -115 -73 -160 -77 -199 -108 -378 -308 -32 -36 -82 -79 -110
-95 -66 -38 -107 -77 -132 -124 -11 -20 -23 -37 -27 -37 -5 0 -8 -6 -8 -13 0
-8 -24 -41 -53 -75 -30 -34 -78 -101 -107 -149 -30 -49 -60 -94 -67 -101 -7
-7 -13 -16 -13 -20 0 -4 -29 -38 -64 -76 -44 -47 -74 -91 -92 -135 -15 -36
-47 -95 -71 -130 -24 -35 -43 -68 -43 -73 0 -5 -26 -64 -59 -131 -53 -111 -81
-190 -96 -272 -9 -51 -13 -71 -24 -111 -6 -22 -14 -64 -17 -94 -3 -30 -12 -80
-20 -111 -8 -31 -14 -70 -14 -87 0 -16 -9 -41 -21 -56 -26 -33 -156 -97 -201
-99 -32 -2 -33 -1 -30 33 4 47 37 146 73 219 64 134 190 594 204 746 10 123
15 152 31 201 50 159 64 211 69 252 6 51 38 169 59 217 7 17 22 55 32 85 10
30 24 62 31 71 7 8 13 21 13 27 0 16 49 119 76 162 13 19 46 94 74 165 29 72
56 139 61 150 13 25 126 113 168 131 34 14 106 71 186 145 48 45 54 47 150 63
236 40 284 49 350 68 39 11 77 20 85 21 8 1 17 5 20 8 3 4 21 15 40 25 55 30
83 55 120 109 19 28 37 52 42 53 4 2 8 10 8 18 0 8 11 27 25 42 14 15 28 36
31 47 13 43 136 174 157 167 4 -1 6 2 2 8 -11 18 101 154 118 143 6 -3 7 -1 3
6 -4 6 4 25 20 44 31 37 63 103 64 132 0 10 15 35 33 55 19 19 40 51 47 70 8
19 26 63 42 98 15 34 30 77 33 95 6 43 38 158 64 232 29 80 39 128 45 211 3
37 10 89 15 114 5 25 17 89 26 142 10 54 20 96 24 94 3 -2 7 26 7 62 4 203 12
364 21 415 5 31 6 57 2 57 -5 0 -10 50 -11 112 -2 74 -7 113 -15 115 -6 2 -14
-5 -18 -16 -7 -23 -244 -265 -252 -258 -3 3 -17 -7 -32 -22 -56 -61 -179 -151
-205 -151 -20 0 -57 -40 -49 -53 3 -6 1 -7 -5 -3 -20 12 -134 -117 -177 -199
-22 -42 -49 -81 -59 -87 -26 -14 -46 -35 -80 -80 -16 -21 -35 -38 -43 -38 -8
0 -11 -4 -8 -10 3 -5 0 -10 -8 -10 -15 0 -38 -24 -131 -138 -28 -33 -62 -67
-76 -77 -38 -25 -90 -118 -116 -204 -7 -26 -33 -70 -59 -100 -30 -35 -47 -66
-51 -92 -4 -21 -10 -39 -14 -39 -5 0 -11 -14 -15 -30 -11 -48 -32 -36 -43 23
-11 62 -8 300 7 412 5 44 13 109 16 145 4 36 11 94 16 130 11 72 15 103 17
138 1 13 6 21 11 18 5 -4 7 3 4 14 -6 23 19 127 53 215 4 11 8 22 9 25 25 95
61 147 143 210 82 62 162 194 177 290 4 25 13 52 20 60 19 22 26 79 14 125 -6
22 -11 47 -12 55 -1 8 -4 17 -7 20 -19 18 -40 63 -40 85 0 35 11 26 41 -32 13
-26 26 -50 29 -53 32 -29 123 -162 131 -192 11 -43 45 -64 86 -53 46 11 132
75 146 108 19 40 37 179 37 274 0 107 -42 285 -76 324 -8 8 -14 28 -14 43 0
34 -46 80 -97 97 -35 11 -111 8 -145 -6 -30 -12 -20 11 21 50 30 29 41 48 46
82 3 25 9 55 11 66 3 12 8 52 11 90 3 37 8 67 12 67 3 0 6 71 6 158 1 149 3
164 39 307 40 153 58 195 82 195 17 0 17 0 -2 -40 -32 -64 -28 -288 7 -335 12
-17 49 -151 49 -179 0 -14 5 -26 10 -26 15 0 12 -26 -5 -40 -8 -6 -14 -15 -13
-18 1 -4 -6 -23 -15 -42 -8 -20 -17 -69 -18 -111 -3 -63 0 -80 19 -110 12 -20
22 -44 22 -54 0 -19 28 -62 76 -116 55 -63 88 -129 95 -193 9 -73 31 -96 91
-96 52 0 118 20 140 42 27 27 52 69 54 92 10 93 12 321 4 366 -34 183 -44 201
-132 254 -104 61 -125 70 -162 71 -22 0 -41 5 -43 13 -3 8 1 10 12 6 9 -4 24
1 35 11 16 14 30 17 74 11 37 -4 57 -2 64 7 22 27 45 168 37 231 -4 33 -8 75
-8 91 -1 17 -5 32 -9 35 -3 3 -9 22 -13 43 -6 30 -4 37 9 37 16 0 46 15 75 37
9 7 32 23 51 35 31 21 37 33 58 113 23 87 29 198 16 271 -6 36 -60 152 -80
171 -8 8 -15 23 -15 34 -2 34 -4 37 -31 67 -14 16 -42 35 -62 42 -20 6 -36 16
-36 20 0 18 43 125 55 139 11 11 16 8 29 -17 9 -17 17 -43 18 -57 1 -14 5 -25
8 -25 3 0 12 -17 19 -37 20 -56 57 -101 83 -102 13 0 40 -3 60 -7 23 -4 65 0
108 11 66 16 126 17 160 1 24 -10 48 15 61 64 l11 45 -48 51 c-27 28 -64 75
-83 105 -18 30 -50 67 -70 82 -32 26 -42 28 -113 26 -43 -1 -78 -5 -78 -10 0
-4 -16 -13 -35 -19 -20 -6 -52 -27 -71 -46 -20 -18 -40 -31 -45 -28 -5 3 -7 9
-4 14 3 5 2 11 -3 14 -5 3 0 40 10 83 10 43 21 88 24 101 5 25 32 30 40 8 9
-23 61 -36 140 -36 68 0 90 9 64 25 -6 3 15 32 46 63 84 84 87 88 79 114 -11
39 -29 72 -50 90 -26 23 -90 20 -112 -4z m-520 -1163 c2 -5 16 -36 31 -69 15
-32 24 -61 21 -64 -6 -6 -18 -9 -65 -14 -14 -2 -28 -7 -31 -11 -3 -4 -16 -9
-27 -10 -12 -1 -22 -5 -22 -9 0 -11 -68 -43 -76 -36 -3 3 -1 14 4 25 58 120
85 179 108 237 l28 68 13 -53 c7 -30 15 -58 16 -64z m-2201 -346 c-12 -9 -52
-22 -89 -29 -38 -6 -79 -19 -93 -27 l-25 -17 28 37 c15 19 27 43 27 52 0 9 13
22 30 28 23 9 35 24 52 65 l22 54 35 -73 34 -72 -21 -18z m115 -224 c10 -8 22
-15 26 -15 11 1 29 -20 55 -62 l23 -37 -35 -6 c-19 -4 -37 -13 -40 -21 -3 -8
-11 -14 -18 -14 -25 0 -96 -106 -76 -112 6 -2 3 -11 -6 -21 -10 -9 -21 -15
-25 -12 -5 2 -17 -5 -27 -16 -21 -23 -135 -92 -191 -116 -33 -13 -36 -13 -24
0 7 9 25 19 41 22 16 3 34 13 41 21 6 8 16 14 21 14 5 0 23 13 41 30 18 16 35
30 39 30 3 0 20 19 37 42 29 39 31 48 31 127 1 82 2 87 30 115 17 16 30 33 30
38 0 12 7 10 27 -7z m246 -407 c8 -24 18 -53 21 -64 14 -46 -37 -114 -83 -114
-14 0 -41 -2 -58 -6 -18 -3 -39 -4 -48 -1 -13 5 -13 10 0 42 9 19 15 37 15 40
0 3 0 32 0 65 l0 60 38 -2 c20 -1 46 3 56 7 15 6 18 5 12 -6 -4 -8 -1 -6 6 4
19 25 24 22 41 -25z m-618 -58 c-10 -11 -21 -17 -24 -14 -3 3 3 12 13 20 28
20 32 17 11 -6z m2802 -42 c-3 -8 -6 -5 -6 6 -1 11 2 17 5 13 3 -3 4 -12 1
-19z m-1517 -1593 c0 -5 -5 -3 -10 5 -5 8 -10 20 -10 25 0 6 5 3 10 -5 5 -8
10 -19 10 -25z m25 -1955 c4 -25 13 -60 21 -79 32 -77 9 -139 -61 -170 -16 -7
-43 -20 -59 -28 l-28 -15 7 33 c4 19 18 58 31 87 19 42 54 206 54 249 0 24 29
-40 35 -77z m-839 -1902 c-3 -24 -13 -79 -21 -123 -9 -44 -16 -89 -16 -100 0
-30 -39 -165 -58 -203 l-17 -34 -45 54 c-51 59 -79 99 -79 109 0 4 27 35 60
69 54 55 149 199 165 250 11 35 17 22 11 -22z"/>
</g>
</svg>
